<?xml version="1.0" standalone="no"?>
<!DOCTYPE svg PUBLIC "-//W3C//DTD SVG 20010904//EN"
 "http://www.w3.org/TR/2001/REC-SVG-20010904/DTD/svg10.dtd">
<svg version="1.0" xmlns="http://www.w3.org/2000/svg"
 width="963.000000pt" height="362.000000pt" viewBox="0 0 963.000000 362.000000"
 preserveAspectRatio="xMidYMid meet">
<metadata>
Created by potrace 1.16, written by Peter Selinger 2001-2019
</metadata>
<g transform="translate(0.000000,362.000000) scale(0.100000,-0.100000)"
fill="#000000" stroke="none">
<path d="M4000 3435 l0 -75 45 0 c34 0 47 5 55 19 11 22 4 51 -13 51 -7 0 -7
4 1 12 32 32 1 68 -57 68 l-31 0 0 -75z m75 30 c0 -14 -8 -21 -27 -23 -24 -3
-28 0 -28 23 0 23 4 26 28 23 19 -2 27 -9 27 -23z m10 -65 c0 -10 -12 -16 -32
-18 -28 -3 -33 0 -33 18 0 18 5 21 33 18 20 -2 32 -8 32 -18z"/>
<path d="M4320 3490 c0 -5 5 -10 10 -10 6 0 10 5 10 10 0 6 -4 10 -10 10 -5 0
-10 -4 -10 -10z"/>
<path d="M4530 3430 c0 -40 4 -70 10 -70 6 0 10 26 10 58 l0 57 38 -57 c50
-78 62 -75 62 12 0 81 -17 95 -22 18 l-3 -51 -35 51 c-48 72 -60 68 -60 -18z"/>
<path d="M4793 3485 c-16 -31 -2 -119 20 -123 9 -2 17 1 17 7 0 6 -4 11 -10
11 -5 0 -10 16 -10 35 0 51 25 45 39 -10 13 -53 25 -57 41 -12 l13 32 10 -33
c5 -18 15 -31 20 -29 9 3 36 78 37 102 0 19 -19 -11 -28 -45 l-9 -35 -12 43
c-13 47 -26 48 -36 2 -8 -36 -21 -31 -30 10 -4 19 -11 27 -21 23 -8 -3 -17 4
-22 18 -9 22 -9 23 -19 4z"/>
<path d="M5160 3430 c0 -40 4 -70 10 -70 6 0 10 11 10 25 0 14 4 25 8 25 5 0
15 -11 22 -25 7 -14 20 -25 27 -25 11 0 9 7 -6 29 -26 35 -26 47 -4 60 10 5
15 12 12 15 -3 4 -18 -3 -32 -15 l-27 -20 0 35 c0 20 -4 36 -10 36 -6 0 -10
-30 -10 -70z"/>
<path d="M5320 3431 c0 -41 4 -71 10 -71 6 0 10 26 11 58 l1 57 20 -57 c11
-32 23 -58 28 -58 5 0 17 26 28 58 l20 57 1 -57 c1 -32 6 -58 11 -58 6 0 10
30 10 70 0 89 -21 96 -46 15 -10 -30 -20 -52 -23 -49 -3 3 -13 26 -22 52 -9
27 -23 48 -32 50 -15 3 -17 -7 -17 -67z"/>
<path d="M5660 3480 c0 -14 -7 -20 -23 -20 -30 0 -47 -18 -47 -50 0 -35 17
-50 57 -50 l33 0 0 70 c0 40 -4 70 -10 70 -5 0 -10 -9 -10 -20z m-2 -64 c4
-34 -8 -49 -31 -40 -17 6 -24 54 -10 68 15 15 38 0 41 -28z"/>
<path d="M5820 3430 c0 -40 4 -70 10 -70 6 0 10 30 10 70 0 40 -4 70 -10 70
-6 0 -10 -30 -10 -70z"/>
<path d="M4158 3463 c-14 -3 -18 -15 -18 -54 0 -27 5 -49 10 -49 6 0 10 18 10
41 0 32 4 42 20 46 11 3 17 9 14 14 -5 9 -8 10 -36 2z"/>
<path d="M4218 3450 c-13 -11 -18 -19 -12 -20 5 0 15 5 21 11 13 13 43 5 43
-11 0 -5 -11 -10 -24 -10 -28 0 -51 -24 -42 -45 4 -10 18 -14 46 -13 l41 1 -3
45 c-4 56 -33 73 -70 42z m52 -54 c0 -16 -27 -29 -41 -20 -15 9 -10 22 9 27
29 8 32 7 32 -7z"/>
<path d="M4327 3463 c-11 -10 -8 -103 3 -103 6 0 10 25 10 55 0 56 -1 60 -13
48z"/>
<path d="M4383 3463 c-20 -4 -23 -11 -23 -54 0 -60 18 -65 22 -6 2 34 7 42 23
42 16 0 21 -8 23 -42 4 -57 22 -55 22 2 0 34 -5 47 -19 55 -11 5 -21 9 -23 9
-2 -1 -13 -4 -25 -6z"/>
<path d="M4691 3454 c-23 -17 -28 -63 -9 -82 15 -15 64 -16 73 -1 10 16 -3 23
-18 10 -17 -14 -47 -4 -47 15 0 10 12 14 40 14 42 0 48 6 28 32 -20 24 -44 28
-67 12z m47 -21 c2 -8 -6 -13 -22 -13 -25 0 -33 10 -19 24 10 10 36 3 41 -11z"/>
<path d="M5001 3453 c-23 -16 -28 -62 -9 -81 22 -22 67 -14 80 13 23 51 -27
99 -71 68z m47 -15 c27 -27 2 -75 -32 -62 -16 6 -23 54 -9 67 10 11 28 8 41
-5z"/>
<path d="M5108 3463 c-14 -3 -18 -15 -18 -54 0 -27 5 -49 10 -49 6 0 10 18 10
41 0 32 4 42 20 46 11 3 17 9 14 14 -5 9 -8 10 -36 2z"/>
<path d="M5501 3453 c-23 -16 -28 -62 -9 -81 22 -22 67 -14 80 13 23 51 -27
99 -71 68z m47 -15 c27 -27 2 -75 -32 -62 -16 6 -23 54 -9 67 10 11 28 8 41
-5z"/>
<path d="M5721 3454 c-23 -17 -28 -63 -9 -82 15 -15 64 -16 73 -1 10 16 -3 23
-18 10 -17 -14 -47 -4 -47 15 0 10 12 14 40 14 42 0 48 6 28 32 -20 24 -44 28
-67 12z m47 -21 c2 -8 -6 -13 -22 -13 -25 0 -33 10 -19 24 10 10 36 3 41 -11z"/>
<path d="M5032 2838 l3 -303 2 297 3 298 1653 3 1652 2 -1657 3 -1658 2 2
-302z"/>
<path d="M8003 3053 c-3 -10 -8 -22 -10 -28 -3 -5 3 -1 11 9 16 20 21 36 11
36 -3 0 -8 -8 -12 -17z"/>
<path d="M7643 2990 c0 -41 2 -58 4 -37 2 20 2 54 0 75 -2 20 -4 3 -4 -38z"/>
<path d="M8063 2990 c0 -41 2 -58 4 -37 2 20 2 54 0 75 -2 20 -4 3 -4 -38z"/>
<path d="M2481 3001 c-6 -10 -13 -45 -16 -77 -12 -119 -14 -126 -37 -118 -14
4 -18 2 -14 -5 11 -17 34 -13 45 7 5 9 12 38 15 65 3 26 9 67 12 92 5 41 8 45
26 39 14 -4 18 -2 14 5 -11 17 -34 13 -45 -8z"/>
<path d="M5331 3001 c-6 -10 -13 -45 -16 -77 -12 -119 -14 -126 -37 -118 -14
4 -18 2 -14 -5 11 -17 34 -13 45 7 5 9 12 38 15 65 3 26 9 67 12 92 5 41 8 45
26 39 14 -4 18 -2 14 5 -11 17 -34 13 -45 -8z"/>
<path d="M7708 2980 c-3 -16 -1 -30 4 -30 4 0 8 6 8 14 0 8 3 21 6 30 3 9 2
16 -4 16 -5 0 -12 -13 -14 -30z"/>
<path d="M7928 2980 c-3 -16 -1 -30 4 -30 4 0 8 6 8 14 0 8 3 21 6 30 3 9 2
16 -4 16 -5 0 -12 -13 -14 -30z"/>
<path d="M2921 2977 c-16 -41 -13 -57 5 -24 8 16 13 34 11 40 -3 7 -10 -1 -16
-16z"/>
<path d="M3651 2977 c-16 -41 -13 -57 5 -24 8 16 13 34 11 40 -3 7 -10 -1 -16
-16z"/>
<path d="M4351 2977 c-16 -41 -13 -57 5 -24 8 16 13 34 11 40 -3 7 -10 -1 -16
-16z"/>
<path d="M5821 2977 c-16 -41 -13 -57 5 -24 8 16 13 34 11 40 -3 7 -10 -1 -16
-16z"/>
<path d="M5924 2990 c-28 -11 -64 -58 -64 -82 0 -26 18 -58 32 -58 9 0 9 3 0
12 -29 29 -9 88 41 118 33 20 28 25 -9 10z"/>
<path d="M6441 2977 c-16 -41 -13 -57 5 -24 8 16 13 34 11 40 -3 7 -10 -1 -16
-16z"/>
<path d="M7141 2977 c-16 -41 -13 -57 5 -24 8 16 13 34 11 40 -3 7 -10 -1 -16
-16z"/>
<path d="M1048 2983 c7 -3 12 -26 12 -63 0 -37 -5 -60 -12 -63 -7 -3 -4 -6 7
-6 18 -1 20 4 17 38 -7 75 1 78 43 15 43 -64 42 -64 47 34 3 46 1 52 -17 52
-15 0 -16 -3 -7 -9 9 -5 12 -24 10 -52 l-3 -44 -34 53 c-24 37 -39 52 -55 51
-11 0 -15 -3 -8 -6z"/>
<path d="M2753 2978 c1 -30 -4 -49 -10 -45 -9 5 -11 -69 -3 -77 3 -3 12 26 21
65 12 52 13 69 3 69 -6 0 -12 -6 -11 -12z"/>
<path d="M3822 2978 c-21 -21 -13 -47 18 -63 36 -19 37 -27 8 -56 l-23 -23 25
16 c14 9 26 27 28 42 3 22 -2 28 -27 37 -33 12 -39 27 -19 47 7 7 10 12 7 12
-3 0 -10 -5 -17 -12z"/>
<path d="M3870 2985 c0 -2 7 -8 15 -15 12 -10 15 -10 15 2 0 8 -7 15 -15 15
-8 0 -15 -1 -15 -2z"/>
<path d="M5653 2978 c1 -30 -4 -49 -10 -45 -9 5 -11 -69 -3 -77 3 -3 12 26 21
65 12 52 13 69 3 69 -6 0 -12 -6 -11 -12z"/>
<path d="M5981 2968 c5 -10 12 -18 14 -18 3 0 5 8 5 18 0 10 -7 19 -14 19 -11
0 -13 -5 -5 -19z"/>
<path d="M6612 2978 c-21 -21 -13 -47 18 -63 36 -19 37 -27 8 -56 l-23 -23 25
16 c14 9 26 27 28 42 3 22 -2 28 -27 37 -33 12 -39 27 -19 47 7 7 10 12 7 12
-3 0 -10 -5 -17 -12z"/>
<path d="M6660 2985 c0 -2 7 -8 15 -15 12 -10 15 -10 15 2 0 8 -7 15 -15 15
-8 0 -15 -1 -15 -2z"/>
<path d="M7803 2983 c15 -2 37 -2 50 0 12 2 0 4 -28 4 -27 0 -38 -2 -22 -4z"/>
<path d="M8717 2982 c15 -10 -9 -111 -29 -123 -8 -6 0 -9 22 -9 22 0 30 3 22
9 -17 10 3 100 26 119 13 10 11 12 -19 12 -20 0 -29 -4 -22 -8z"/>
<path d="M279 2953 c-14 -37 -6 -111 15 -131 15 -15 15 -12 -1 26 -13 34 -14
51 -6 87 12 51 8 59 -8 18z"/>
<path d="M581 2973 c-1 -6 -8 -19 -17 -27 -8 -9 -11 -16 -5 -16 6 0 6 -11 0
-32 -5 -18 -5 -36 0 -41 4 -4 11 10 15 32 3 21 10 41 14 43 5 1 5 14 1 28 -4
14 -7 20 -8 13z"/>
<path d="M653 2936 c8 -37 7 -54 -6 -88 -16 -40 -16 -42 0 -25 21 21 25 129 7
147 -9 9 -9 0 -1 -34z"/>
<path d="M1219 2953 c-14 -37 -6 -111 15 -131 15 -15 15 -12 -1 26 -13 34 -14
51 -6 87 12 51 8 59 -8 18z"/>
<path d="M1439 2953 c-14 -37 -6 -111 15 -131 15 -15 15 -12 -1 26 -13 34 -14
51 -6 87 12 51 8 59 -8 18z"/>
<path d="M1783 2936 c8 -37 7 -54 -6 -88 -16 -40 -16 -42 0 -25 21 21 25 129
7 147 -9 9 -9 0 -1 -34z"/>
<path d="M1863 2936 c8 -37 7 -54 -6 -88 -16 -40 -16 -42 0 -25 21 21 25 129
7 147 -9 9 -9 0 -1 -34z"/>
<path d="M3089 2953 c-14 -37 -6 -111 15 -131 15 -15 15 -12 -1 26 -13 34 -14
51 -6 87 12 51 8 59 -8 18z"/>
<path d="M3733 2936 c8 -37 7 -54 -6 -88 -16 -40 -16 -42 0 -25 21 21 25 129
7 147 -9 9 -9 0 -1 -34z"/>
<path d="M3939 2953 c-14 -37 -6 -111 15 -131 15 -15 15 -12 -1 26 -13 34 -14
51 -6 87 12 51 8 59 -8 18z"/>
<path d="M4159 2953 c-14 -37 -6 -111 15 -131 15 -15 15 -12 -1 26 -13 34 -14
51 -6 87 12 51 8 59 -8 18z"/>
<path d="M4521 2973 c-1 -6 -8 -19 -17 -27 -8 -9 -11 -16 -5 -16 6 0 6 -11 0
-32 -5 -18 -5 -36 0 -41 4 -4 11 10 15 32 3 21 10 41 14 43 5 1 5 14 1 28 -4
14 -7 20 -8 13z"/>
<path d="M4593 2936 c8 -37 7 -54 -6 -88 -16 -40 -16 -42 0 -25 21 21 25 129
7 147 -9 9 -9 0 -1 -34z"/>
<path d="M4673 2936 c8 -37 7 -54 -6 -88 -16 -40 -16 -42 0 -25 21 21 25 129
7 147 -9 9 -9 0 -1 -34z"/>
<path d="M6049 2953 c-14 -37 -6 -111 15 -131 15 -15 15 -12 -1 26 -13 34 -14
51 -6 87 12 51 8 59 -8 18z"/>
<path d="M6523 2936 c8 -37 7 -54 -6 -88 -16 -40 -16 -42 0 -25 21 21 25 129
7 147 -9 9 -9 0 -1 -34z"/>
<path d="M6729 2953 c-14 -37 -6 -111 15 -131 15 -15 15 -12 -1 26 -13 34 -14
51 -6 87 12 51 8 59 -8 18z"/>
<path d="M6949 2953 c-14 -37 -6 -111 15 -131 15 -15 15 -12 -1 26 -13 34 -14
51 -6 87 12 51 8 59 -8 18z"/>
<path d="M7311 2973 c-1 -6 -8 -19 -17 -27 -8 -9 -11 -16 -5 -16 6 0 6 -11 0
-32 -5 -18 -5 -36 0 -41 4 -4 11 10 15 32 3 21 10 41 14 43 5 1 5 14 1 28 -4
14 -7 20 -8 13z"/>
<path d="M8153 2936 c8 -37 7 -54 -6 -88 -16 -40 -16 -42 0 -25 21 21 25 129
7 147 -9 9 -9 0 -1 -34z"/>
<path d="M8233 2936 c8 -37 7 -54 -6 -88 -16 -40 -16 -42 0 -25 21 21 25 129
7 147 -9 9 -9 0 -1 -34z"/>
<path d="M9029 2953 c-14 -37 -6 -111 15 -131 15 -15 15 -12 -1 26 -13 34 -14
51 -6 87 12 51 8 59 -8 18z"/>
<path d="M9373 2936 c8 -37 7 -54 -6 -88 -16 -40 -16 -42 0 -25 21 21 25 129
7 147 -9 9 -9 0 -1 -34z"/>
<path d="M1685 2954 c-10 -24 -6 -86 6 -98 5 -6 9 6 9 32 0 27 5 42 13 42 8 0
9 3 1 8 -6 4 -13 14 -16 21 -3 12 -6 10 -13 -5z"/>
<path d="M9275 2954 c-10 -24 -6 -86 6 -98 5 -6 9 6 9 32 0 27 5 42 13 42 8 0
9 3 1 8 -6 4 -13 14 -16 21 -3 12 -6 10 -13 -5z"/>
<path d="M2080 2936 c0 -19 -6 -26 -27 -29 l-28 -4 28 -2 c23 -1 27 -5 27 -31
0 -16 5 -30 10 -30 6 0 10 13 10 29 0 25 5 30 28 34 l27 4 -27 2 c-23 1 -28 6
-28 26 0 14 -4 25 -10 25 -5 0 -10 -11 -10 -24z"/>
<path d="M4900 2936 c0 -19 -6 -26 -27 -29 l-28 -4 28 -2 c23 -1 27 -5 27 -31
0 -16 5 -30 10 -30 6 0 10 13 10 29 0 25 5 30 28 34 l27 4 -27 2 c-23 1 -28 6
-28 26 0 14 -4 25 -10 25 -5 0 -10 -11 -10 -24z"/>
<path d="M8460 2936 c0 -19 -6 -26 -27 -29 l-28 -4 28 -2 c23 -1 27 -5 27 -31
0 -16 5 -30 10 -30 6 0 10 13 10 29 0 25 5 30 28 34 l27 4 -27 2 c-23 1 -28 6
-28 26 0 14 -4 25 -10 25 -5 0 -10 -11 -10 -24z"/>
<path d="M115 2930 c-3 -6 1 -7 10 -4 13 5 14 2 5 -20 -9 -25 -5 -56 9 -56 3
0 7 20 7 45 1 31 -3 45 -12 45 -7 0 -16 -4 -19 -10z"/>
<path d="M210 2933 c0 -5 5 -15 10 -23 8 -12 10 -11 10 8 0 12 -4 22 -10 22
-5 0 -10 -3 -10 -7z"/>
<path d="M349 2923 c-13 -16 -12 -17 4 -4 9 7 17 15 17 17 0 8 -8 3 -21 -13z"/>
<path d="M380 2909 c0 -19 -5 -40 -10 -45 -7 -7 -6 -11 4 -11 17 0 30 67 16
81 -7 7 -10 -2 -10 -25z"/>
<path d="M420 2930 c0 -5 5 -10 10 -10 6 0 10 5 10 10 0 6 -4 10 -10 10 -5 0
-10 -4 -10 -10z"/>
<path d="M1285 2930 c-3 -6 1 -7 10 -4 13 5 14 2 5 -20 -9 -25 -5 -56 9 -56 3
0 7 20 7 45 1 31 -3 45 -12 45 -7 0 -16 -4 -19 -10z"/>
<path d="M1380 2933 c0 -5 5 -15 10 -23 8 -12 10 -11 10 8 0 12 -4 22 -10 22
-5 0 -10 -3 -10 -7z"/>
<path d="M1518 2917 c17 -18 19 -26 9 -36 -9 -10 -8 -11 5 -6 12 5 20 1 24 -9
3 -9 14 -16 24 -16 14 0 10 8 -16 36 -19 19 -34 40 -34 45 0 5 -8 9 -17 9 -14
0 -13 -3 5 -23z"/>
<path d="M1560 2930 c0 -5 7 -7 15 -4 8 4 15 8 15 10 0 2 -7 4 -15 4 -8 0 -15
-4 -15 -10z"/>
<path d="M2697 2922 c-17 -19 -23 -57 -9 -65 4 -3 8 9 9 25 1 17 8 36 14 44
17 21 5 17 -14 -4z"/>
<path d="M2799 2923 c-13 -16 -12 -17 4 -4 16 13 21 21 13 21 -2 0 -10 -8 -17
-17z"/>
<path d="M2830 2909 c0 -19 -5 -40 -10 -45 -7 -7 -6 -11 4 -11 17 0 30 67 16
81 -7 7 -10 -2 -10 -25z"/>
<path d="M2870 2930 c0 -5 5 -10 10 -10 6 0 10 5 10 10 0 6 -4 10 -10 10 -5 0
-10 -4 -10 -10z"/>
<path d="M2993 2928 c-25 -32 -18 -78 12 -78 18 0 19 -12 3 -29 -11 -11 -10
-13 2 -9 14 4 29 38 43 99 5 18 3 26 -7 26 -8 0 -12 -6 -10 -12 8 -19 -14 -65
-31 -65 -19 0 -19 29 1 58 16 23 4 32 -13 10z"/>
<path d="M3159 2923 c-13 -16 -12 -17 4 -4 16 13 21 21 13 21 -2 0 -10 -8 -17
-17z"/>
<path d="M3190 2909 c0 -19 -5 -40 -10 -45 -7 -7 -6 -11 4 -11 17 0 30 67 16
81 -7 7 -10 -2 -10 -25z"/>
<path d="M3230 2930 c0 -5 5 -10 10 -10 6 0 10 5 10 10 0 6 -4 10 -10 10 -5 0
-10 -4 -10 -10z"/>
<path d="M3529 2923 c-13 -16 -12 -17 4 -4 16 13 21 21 13 21 -2 0 -10 -8 -17
-17z"/>
<path d="M3560 2909 c0 -19 -5 -40 -10 -45 -7 -7 -6 -11 4 -11 17 0 30 67 16
81 -7 7 -10 -2 -10 -25z"/>
<path d="M3600 2930 c0 -5 5 -10 10 -10 6 0 10 5 10 10 0 6 -4 10 -10 10 -5 0
-10 -4 -10 -10z"/>
<path d="M4005 2930 c-3 -6 1 -7 10 -4 13 5 14 2 5 -20 -9 -25 -5 -56 9 -56 3
0 7 20 7 45 1 31 -3 45 -12 45 -7 0 -16 -4 -19 -10z"/>
<path d="M4100 2933 c0 -5 5 -15 10 -23 8 -12 10 -11 10 8 0 12 -4 22 -10 22
-5 0 -10 -3 -10 -7z"/>
<path d="M4229 2923 c-13 -16 -12 -17 4 -4 16 13 21 21 13 21 -2 0 -10 -8 -17
-17z"/>
<path d="M4260 2909 c0 -19 -5 -40 -10 -45 -7 -7 -6 -11 4 -11 17 0 30 67 16
81 -7 7 -10 -2 -10 -25z"/>
<path d="M4300 2930 c0 -5 5 -10 10 -10 6 0 10 5 10 10 0 6 -4 10 -10 10 -5 0
-10 -4 -10 -10z"/>
<path d="M5597 2922 c-17 -19 -23 -57 -9 -65 4 -3 8 9 9 25 1 17 8 36 14 44
17 21 5 17 -14 -4z"/>
<path d="M5699 2923 c-13 -16 -12 -17 4 -4 16 13 21 21 13 21 -2 0 -10 -8 -17
-17z"/>
<path d="M5730 2909 c0 -19 -5 -40 -10 -45 -7 -7 -6 -11 4 -11 17 0 30 67 16
81 -7 7 -10 -2 -10 -25z"/>
<path d="M5770 2930 c0 -5 5 -10 10 -10 6 0 10 5 10 10 0 6 -4 10 -10 10 -5 0
-10 -4 -10 -10z"/>
<path d="M6119 2923 c-13 -16 -12 -17 4 -4 16 13 21 21 13 21 -2 0 -10 -8 -17
-17z"/>
<path d="M6150 2909 c0 -19 -5 -40 -10 -45 -7 -7 -6 -11 4 -11 17 0 30 67 16
81 -7 7 -10 -2 -10 -25z"/>
<path d="M6190 2930 c0 -5 5 -10 10 -10 6 0 10 5 10 10 0 6 -4 10 -10 10 -5 0
-10 -4 -10 -10z"/>
<path d="M6329 2923 c-13 -16 -12 -17 4 -4 16 13 21 21 13 21 -2 0 -10 -8 -17
-17z"/>
<path d="M6360 2909 c0 -19 -5 -40 -10 -45 -7 -7 -6 -11 4 -11 17 0 30 67 16
81 -7 7 -10 -2 -10 -25z"/>
<path d="M6400 2930 c0 -5 5 -10 10 -10 6 0 10 5 10 10 0 6 -4 10 -10 10 -5 0
-10 -4 -10 -10z"/>
<path d="M6795 2930 c-3 -6 1 -7 10 -4 13 5 14 2 5 -20 -9 -25 -5 -56 9 -56 3
0 7 20 7 45 1 31 -3 45 -12 45 -7 0 -16 -4 -19 -10z"/>
<path d="M6890 2933 c0 -5 5 -15 10 -23 8 -12 10 -11 10 8 0 12 -4 22 -10 22
-5 0 -10 -3 -10 -7z"/>
<path d="M7019 2923 c-13 -16 -12 -17 4 -4 9 7 17 15 17 17 0 8 -8 3 -21 -13z"/>
<path d="M7050 2909 c0 -19 -5 -40 -10 -45 -7 -7 -6 -11 4 -11 17 0 30 67 16
81 -7 7 -10 -2 -10 -25z"/>
<path d="M7090 2930 c0 -5 5 -10 10 -10 6 0 10 5 10 10 0 6 -4 10 -10 10 -5 0
-10 -4 -10 -10z"/>
<path d="M9108 2917 c17 -18 19 -26 9 -36 -9 -10 -8 -11 5 -6 12 5 20 1 24 -9
3 -9 14 -16 24 -16 14 0 10 8 -16 36 -19 19 -34 40 -34 45 0 5 -8 9 -17 9 -14
0 -13 -3 5 -23z"/>
<path d="M9150 2930 c0 -5 7 -7 15 -4 8 4 15 8 15 10 0 2 -7 4 -15 4 -8 0 -15
-4 -15 -10z"/>
<path d="M798 2923 c17 -2 47 -2 65 0 17 2 3 4 -33 4 -36 0 -50 -2 -32 -4z"/>
<path d="M3358 2903 c17 -2 47 -2 65 0 17 2 3 4 -33 4 -36 0 -50 -2 -32 -4z"/>
<path d="M5956 2895 c4 -8 1 -22 -5 -29 -10 -12 -9 -14 5 -12 10 2 21 15 25
29 6 22 4 27 -12 27 -12 0 -16 -5 -13 -15z"/>
<path d="M7438 2903 c17 -2 47 -2 65 0 17 2 3 4 -33 4 -36 0 -50 -2 -32 -4z"/>
<path d="M7620 2900 c0 -6 85 -10 235 -10 150 0 235 4 235 10 0 6 -85 10 -235
10 -150 0 -235 -4 -235 -10z"/>
<path d="M8955 2884 c-4 -16 -8 -34 -10 -41 -2 -7 0 -15 4 -17 5 -3 11 13 15
36 8 47 0 65 -9 22z"/>
<path d="M798 2883 c17 -2 47 -2 65 0 17 2 3 4 -33 4 -36 0 -50 -2 -32 -4z"/>
<path d="M3786 2874 c-8 -21 -8 -21 8 -21 8 0 11 8 8 19 -5 22 -8 23 -16 2z"/>
<path d="M6576 2874 c-8 -21 -8 -21 8 -21 8 0 11 8 8 19 -5 22 -8 23 -16 2z"/>
<path d="M8775 2859 c-4 -12 -2 -26 5 -33 8 -8 10 -7 5 7 -4 9 -3 17 2 17 5 0
10 7 10 15 0 22 -15 18 -22 -6z"/>
<path d="M8868 2850 c-3 -16 -1 -30 4 -30 4 0 8 6 8 14 0 8 3 21 6 30 3 9 2
16 -4 16 -5 0 -12 -13 -14 -30z"/>
<path d="M161 2854 c0 -11 3 -14 6 -6 3 7 2 16 -1 19 -3 4 -6 -2 -5 -13z"/>
<path d="M460 2860 c0 -5 5 -10 10 -10 6 0 10 5 10 10 0 6 -4 10 -10 10 -5 0
-10 -4 -10 -10z"/>
<path d="M1331 2854 c0 -11 3 -14 6 -6 3 7 2 16 -1 19 -3 4 -6 -2 -5 -13z"/>
<path d="M1620 2860 c0 -5 5 -10 10 -10 6 0 10 5 10 10 0 6 -4 10 -10 10 -5 0
-10 -4 -10 -10z"/>
<path d="M4051 2854 c0 -11 3 -14 6 -6 3 7 2 16 -1 19 -3 4 -6 -2 -5 -13z"/>
<path d="M4400 2860 c0 -5 5 -10 10 -10 6 0 10 5 10 10 0 6 -4 10 -10 10 -5 0
-10 -4 -10 -10z"/>
<path d="M6230 2860 c0 -5 5 -10 10 -10 6 0 10 5 10 10 0 6 -4 10 -10 10 -5 0
-10 -4 -10 -10z"/>
<path d="M6841 2854 c0 -11 3 -14 6 -6 3 7 2 16 -1 19 -3 4 -6 -2 -5 -13z"/>
<path d="M7200 2860 c0 -5 5 -10 10 -10 6 0 10 5 10 10 0 6 -4 10 -10 10 -5 0
-10 -4 -10 -10z"/>
<path d="M9210 2860 c0 -5 5 -10 10 -10 6 0 10 5 10 10 0 6 -4 10 -10 10 -5 0
-10 -4 -10 -10z"/>
<path d="M1498 2853 c6 -2 18 -2 25 0 6 3 1 5 -13 5 -14 0 -19 -2 -12 -5z"/>
<path d="M9088 2853 c6 -2 18 -2 25 0 6 3 1 5 -13 5 -14 0 -19 -2 -12 -5z"/>
<path d="M7835 2819 c-4 -12 -3 -25 2 -29 4 -5 9 4 10 21 3 34 -3 38 -12 8z"/>
<path d="M7875 2830 c3 -5 8 -10 11 -10 2 0 4 5 4 10 0 6 -5 10 -11 10 -5 0
-7 -4 -4 -10z"/>
<path d="M2965 2820 c3 -5 8 -10 11 -10 2 0 4 5 4 10 0 6 -5 10 -11 10 -5 0
-7 -4 -4 -10z"/>
<path d="M2293 2738 c0 -7 -3 -31 -7 -53 -4 -27 -3 -33 3 -20 15 34 23 85 13
85 -5 0 -9 -6 -9 -12z"/>
<path d="M2593 2738 c0 -7 -3 -31 -7 -53 -4 -27 -3 -33 3 -20 15 34 23 85 13
85 -5 0 -9 -6 -9 -12z"/>
<path d="M5193 2738 c0 -7 -3 -31 -7 -53 -4 -27 -3 -33 3 -20 15 34 23 85 13
85 -5 0 -9 -6 -9 -12z"/>
<path d="M5316 2708 c-4 -23 -3 -45 1 -49 4 -4 8 2 8 14 1 12 4 34 8 50 4 15
3 27 -2 27 -4 0 -11 -19 -15 -42z"/>
<path d="M5483 2738 c0 -7 -3 -31 -7 -53 -4 -27 -3 -33 3 -20 15 34 23 85 13
85 -5 0 -9 -6 -9 -12z"/>
<path d="M1294 2493 l-141 -248 135 -3 135 -3 -6 -49 c-11 -88 -79 -195 -154
-241 -25 -16 -37 -19 -42 -10 -5 8 -19 3 -45 -18 l-37 -30 38 -10 c49 -14 53
-14 53 3 0 7 14 19 30 26 42 18 134 119 156 174 11 25 22 46 25 46 4 0 12 -13
19 -30 16 -39 100 -123 139 -140 17 -7 31 -19 31 -27 0 -12 8 -14 37 -8 56 10
58 15 21 45 -22 19 -37 25 -45 18 -27 -22 -123 60 -162 139 -12 23 -21 58 -21
78 l0 35 111 0 c106 0 113 -1 135 -25 22 -24 50 -25 65 -2 9 13 76 -21 99 -51
27 -34 25 -48 -7 -55 -73 -16 -133 -92 -133 -169 0 -55 39 -118 91 -146 116
-62 249 17 249 148 0 81 -54 152 -125 166 -21 4 -35 12 -35 21 0 31 -35 73
-79 95 -26 13 -52 31 -59 41 -9 11 -24 17 -40 15 -24 -3 -35 13 -156 229 -72
128 -133 232 -136 233 -3 0 -68 -111 -146 -247z m136 -45 c0 -9 3 -9 12 0 15
15 45 16 54 1 4 -8 0 -9 -15 -4 -15 4 -23 1 -27 -10 -9 -22 14 -45 25 -26 6 9
11 10 15 2 10 -16 -24 -26 -43 -13 -32 24 -44 25 -57 7 -13 -17 -14 -15 -14
18 0 33 3 37 25 37 14 0 25 -5 25 -12z m490 -514 c0 -24 -5 -34 -15 -34 -10 0
-15 10 -15 33 0 19 3 37 6 40 13 13 24 -5 24 -39z"/>
<path d="M1390 2440 c0 -5 5 -10 10 -10 6 0 10 5 10 10 0 6 -4 10 -10 10 -5 0
-10 -4 -10 -10z"/>
<path d="M2342 2698 c-15 -15 -16 -35 -2 -43 6 -3 7 1 4 10 -4 8 -1 22 6 30
15 18 9 20 -8 3z"/>
<path d="M2378 2678 c-5 -28 -4 -29 9 -13 15 22 16 32 4 39 -5 3 -11 -8 -13
-26z"/>
<path d="M2422 2698 c-15 -15 -16 -35 -2 -43 6 -3 7 1 4 10 -4 8 -1 22 6 30
15 18 9 20 -8 3z"/>
<path d="M2495 2689 c-4 -12 -2 -26 5 -33 8 -8 10 -7 4 7 -3 9 -1 24 6 32 8 9
8 15 2 15 -6 0 -14 -9 -17 -21z"/>
<path d="M2533 2677 c-2 -23 0 -28 7 -17 12 18 13 50 3 50 -5 0 -9 -15 -10
-33z"/>
<path d="M5102 2693 c-5 -10 -7 -24 -5 -30 8 -23 18 -14 18 17 0 35 -1 36 -13
13z"/>
<path d="M5133 2664 c-6 -25 -7 -42 -3 -37 12 12 30 83 21 83 -4 0 -12 -21
-18 -46z"/>
<path d="M5242 2698 c-15 -15 -16 -35 -2 -43 6 -3 7 1 4 10 -4 8 -1 22 6 30
15 18 9 20 -8 3z"/>
<path d="M5278 2678 c-5 -28 -4 -29 9 -13 15 22 16 32 4 39 -5 3 -11 -8 -13
-26z"/>
<path d="M5352 2706 c4 -5 2 -20 -3 -35 -9 -24 -8 -25 6 -7 18 24 19 33 3 42
-7 4 -10 4 -6 0z"/>
<path d="M5385 2689 c-4 -12 -2 -26 5 -33 8 -8 10 -7 4 7 -3 9 -1 24 6 32 8 9
8 15 2 15 -6 0 -14 -9 -17 -21z"/>
<path d="M5423 2677 c-2 -23 0 -28 7 -17 12 18 13 50 3 50 -5 0 -9 -15 -10
-33z"/>
<path d="M3796 2671 c-16 -11 -33 -27 -38 -35 -5 -9 -20 -16 -33 -16 -33 0
-88 -57 -115 -117 -5 -13 -18 -23 -27 -23 -10 0 -31 -11 -46 -25 -22 -21 -27
-35 -27 -73 0 -52 -6 -65 -32 -75 -38 -14 -58 -67 -58 -154 0 -106 -10 -100
192 -117 24 -1 39 2 42 11 8 21 23 15 30 -11 4 -16 21 -30 55 -45 57 -24 72
-26 65 -8 -2 7 1 20 8 28 11 14 20 15 63 4 34 -9 42 -13 24 -14 -15 0 -33 -11
-42 -23 -14 -20 -18 -21 -26 -8 -7 9 -11 10 -11 3 0 -7 37 -30 83 -53 45 -22
100 -51 122 -64 46 -28 82 -32 110 -12 11 7 39 17 63 21 51 8 77 40 70 85 l-5
30 66 0 c132 0 195 38 226 138 15 46 16 61 6 89 -7 18 -10 37 -6 42 7 12 -44
120 -80 171 -36 51 -64 78 -112 107 -24 14 -43 29 -43 34 0 5 -8 9 -19 9 -10
0 -38 11 -62 24 -49 28 -116 48 -169 51 -19 1 -53 9 -75 19 -29 12 -46 14 -62
7 -16 -7 -23 -6 -27 5 -8 21 -75 18 -110 -5z m69 -13 c-4 -13 -9 -35 -12 -50
-5 -27 -23 -40 -23 -18 0 6 -11 22 -25 35 l-26 23 23 16 c12 9 33 16 46 16 21
0 23 -3 17 -22z m183 -55 l27 -28 -29 -3 c-37 -5 -80 33 -56 48 22 14 28 13
58 -17z m132 -3 c38 -21 68 -35 118 -56 17 -7 32 -21 32 -30 0 -12 -4 -14 -12
-6 -7 5 -24 13 -37 17 -14 4 -42 20 -64 36 -22 16 -44 29 -49 29 -5 0 -20 -12
-34 -27 -32 -35 -53 -19 -34 26 14 36 31 38 80 11z m-386 -6 c9 -23 7 -104 -2
-104 -9 0 -30 92 -24 109 5 16 19 14 26 -5z m133 -15 c-14 -23 -26 -24 -34 -3
-7 18 13 35 33 27 10 -4 11 -9 1 -24z m304 -48 c22 -21 39 -44 39 -50 0 -22
-31 -24 -51 -2 -21 22 -39 28 -39 12 0 -5 5 -11 11 -13 8 -3 9 -15 4 -36 -5
-27 -9 -31 -21 -21 -8 6 -14 28 -14 48 0 20 -5 42 -11 48 -14 14 6 53 28 53 8
0 33 -17 54 -39z m-556 19 c3 -5 1 -10 -4 -10 -6 0 -11 5 -11 10 0 6 2 10 4
10 3 0 8 -4 11 -10z m16 -119 c-16 -29 -13 -103 5 -129 23 -33 1 -27 -24 7
-18 24 -20 35 -12 62 6 19 10 50 10 69 0 45 23 74 28 36 2 -14 -2 -34 -7 -45z
m627 36 c3 -21 -2 -29 -23 -37 -41 -16 -51 -12 -27 10 12 12 22 30 22 41 0 30
24 18 28 -14z m-678 -7 c5 -35 1 -41 -20 -30 -23 12 -26 30 -8 48 13 13 25 5
28 -18z m152 -22 c-6 -6 -7 0 -4 19 5 21 7 23 10 9 2 -10 0 -22 -6 -28z m636
-19 c-7 -5 -27 -9 -44 -9 -33 0 -44 13 -44 51 0 18 3 18 51 -7 36 -19 47 -29
37 -35z m-880 1 c-11 -34 -28 -49 -28 -25 0 18 21 55 32 55 4 0 2 -14 -4 -30z
m207 -8 c0 -46 -19 -44 -23 2 -3 28 0 37 10 34 7 -3 13 -19 13 -36z m-179 -1
c-3 -4 6 -19 21 -32 26 -24 27 -23 7 26 -11 27 12 16 25 -12 9 -21 9 -28 0
-34 -9 -5 -2 -19 25 -49 20 -23 36 -46 33 -53 -4 -12 -29 -23 -25 -10 3 10
-30 64 -51 81 -25 21 -34 14 -27 -23 5 -27 4 -35 -7 -35 -18 0 -27 21 -27 62
0 28 2 29 33 23 l32 -6 -29 24 c-24 21 -29 47 -10 47 3 0 3 -4 0 -9z m482 -16
c14 -29 16 -65 5 -65 -20 1 -30 18 -31 53 -2 43 10 48 26 12z m162 0 c-7 -9
-15 -13 -19 -10 -3 3 1 10 9 15 21 14 24 12 10 -5z m125 -20 c23 -19 27 -27
18 -36 -9 -9 -19 -4 -42 19 -17 17 -31 33 -31 36 0 13 27 4 55 -19z m117 8
c10 -9 18 -24 18 -33 0 -10 7 -20 14 -23 8 -3 21 -19 29 -34 19 -37 31 -133
17 -133 -5 0 -13 0 -16 0 -4 0 -8 21 -10 47 -2 26 -7 49 -11 52 -5 3 -18 27
-30 53 -17 36 -30 49 -57 58 -20 6 -34 16 -31 21 10 15 57 10 77 -8z m-212
-51 c-7 -3 -19 3 -28 13 -16 15 -15 16 12 4 15 -7 23 -15 16 -17z m-410 -13
c0 -10 8 -27 18 -37 9 -9 27 -31 39 -48 18 -26 32 -33 72 -38 28 -4 53 -11 56
-16 3 -6 14 -10 24 -10 10 0 33 -11 52 -25 19 -13 45 -29 58 -35 17 -8 22 -16
17 -33 -4 -16 1 -26 15 -35 13 -9 18 -19 14 -30 -3 -9 -3 -13 1 -9 9 9 34 -12
34 -29 0 -8 -7 -14 -16 -14 -9 0 -14 6 -11 13 5 14 -31 43 -47 39 -15 -5 -34
18 -30 36 6 24 -4 35 -61 63 -45 23 -84 36 -165 53 -44 10 -109 131 -93 173 7
18 23 5 23 -18z m633 -39 c24 -45 28 -63 25 -102 -3 -26 -1 -51 4 -56 15 -15
-51 -53 -104 -59 l-51 -6 5 34 c5 32 -20 85 -59 127 -7 7 -13 20 -13 28 0 31
-35 8 -48 -31 -7 -22 -18 -44 -24 -50 -15 -14 -2 50 20 95 14 28 23 35 46 35
25 0 31 -5 38 -31 4 -17 18 -42 30 -55 39 -43 53 -76 39 -93 -29 -35 23 -50
54 -16 10 11 24 20 32 20 25 0 13 17 -19 27 l-33 10 28 11 c36 15 35 25 -3 17
-19 -4 -30 -3 -30 4 0 6 6 11 14 11 8 0 16 6 19 13 3 9 -3 12 -22 9 -18 -2
-33 4 -50 22 -26 27 -27 25 25 41 10 3 14 11 10 21 -3 9 -3 20 0 25 13 21 38
2 67 -51z m-667 -38 c17 -27 17 -27 -15 2 -35 33 -37 38 -17 30 8 -3 22 -18
32 -32z m232 -38 c-10 -9 -51 33 -44 45 5 8 14 4 28 -14 11 -14 18 -28 16 -31z
m-539 23 c18 -20 19 -26 8 -36 -27 -22 -70 19 -52 49 9 15 19 12 44 -13z m91
-1 c0 -7 -7 -19 -15 -26 -8 -7 -13 -16 -10 -20 3 -4 -2 -10 -10 -13 -11 -5
-12 -12 -4 -36 12 -33 40 -43 77 -27 42 18 43 -20 0 -48 -19 -12 -31 -13 -65
-3 l-42 11 4 55 c2 31 4 59 5 62 0 12 41 59 51 59 5 0 9 -6 9 -14z m185 -62
c38 -30 184 -104 206 -104 22 0 88 -41 111 -68 14 -16 34 -33 46 -36 23 -8 29
-30 12 -41 -6 -4 -23 1 -38 11 -15 10 -44 26 -64 36 -21 9 -38 22 -38 28 0 5
-6 10 -14 10 -7 0 -26 7 -42 15 -16 8 -47 17 -70 21 -28 4 -44 12 -47 23 -4
17 -62 61 -121 91 -33 17 -44 39 -26 50 18 11 37 3 85 -36z m129 -33 c33 -20
53 -42 24 -25 -49 28 -98 67 -98 76 0 7 9 3 19 -9 11 -11 35 -30 55 -42z m393
17 c-3 -7 -5 -2 -5 12 0 14 2 19 5 13 2 -7 2 -19 0 -25z m-823 5 c-3 -10 -14
-29 -24 -43 l-20 -25 0 23 c0 13 5 32 10 43 13 24 40 26 34 2z m186 8 c0 -7
-70 -41 -85 -41 -15 0 -1 21 23 33 31 17 62 21 62 8z m579 -30 c-17 -48 -33
-55 -56 -23 l-21 28 25 2 c14 1 32 6 41 12 9 5 18 10 19 10 1 0 -3 -13 -8 -29z
m-494 -31 c10 -11 16 -20 13 -20 -3 0 -13 9 -23 20 -10 11 -16 20 -13 20 3 0
13 -9 23 -20z m517 -2 c-7 -7 -12 -8 -12 -2 0 14 12 26 19 19 2 -3 -1 -11 -7
-17z m-496 -48 c19 0 24 -5 24 -24 0 -32 -25 -40 -60 -19 -31 18 -50 51 -50
86 0 20 2 20 31 -10 18 -20 40 -33 55 -33z m209 32 c-3 -3 -11 0 -18 7 -9 10
-8 11 6 5 10 -3 15 -9 12 -12z m490 -57 c0 -5 -21 -11 -47 -13 -46 -3 -67 11
-30 21 28 8 77 3 77 -8z m-510 -45 c3 -6 -1 -7 -9 -4 -18 7 -21 14 -7 14 6 0
13 -4 16 -10z m239 -15 c6 -17 4 -18 -18 -9 -20 8 -21 24 -2 24 8 0 16 -7 20
-15z m-238 -26 c33 -20 44 -39 24 -39 -19 0 -90 40 -90 50 0 16 31 11 66 -11z
m108 -14 c16 -12 17 -15 4 -15 -8 0 -21 7 -28 15 -16 19 -1 19 24 0z m184 -7
c-6 -18 -25 -20 -31 -3 -5 10 0 15 14 15 12 0 19 -5 17 -12z m-192 -49 c3 -5
1 -9 -5 -9 -17 0 -41 12 -41 20 0 10 38 1 46 -11z"/>
<path d="M4394 2259 c-3 -6 -1 -16 5 -22 8 -8 11 -5 11 11 0 24 -5 28 -16 11z"/>
<path d="M9421 2640 c-28 -26 -38 -40 -27 -40 28 0 17 -14 -35 -45 -32 -19
-45 -31 -35 -33 22 -5 20 -9 -10 -35 l-26 -23 -52 53 c-50 52 -51 53 -74 35
l-22 -17 24 -70 c41 -118 64 -165 79 -159 8 3 19 -2 26 -10 9 -11 7 -18 -15
-35 -31 -25 -42 -26 -68 -6 -27 21 -40 19 -124 -14 l-74 -28 93 -12 c52 -7 95
-14 97 -16 3 -2 -24 -22 -59 -44 l-64 -41 -42 48 c-23 26 -42 54 -43 62 0 11
-3 12 -8 3 -8 -12 -128 -61 -172 -70 -52 -10 -53 -11 -23 -53 31 -44 35 -46
113 -55 48 -6 60 -4 92 18 l36 25 29 -35 c20 -24 41 -37 71 -44 41 -9 46 -7
94 28 71 51 108 134 73 163 -22 18 -19 26 15 40 46 19 60 48 49 103 -4 26 -15
60 -23 76 l-15 29 61 22 c42 15 57 25 47 31 -17 10 -16 11 56 40 35 14 53 25
43 27 -32 6 -19 20 42 44 33 12 60 26 60 29 0 3 -26 13 -57 22 -32 9 -65 18
-73 21 -9 3 -33 -11 -59 -34z"/>
<path d="M5775 2649 c-33 -10 -72 -19 -88 -19 -38 0 -209 -82 -275 -131 -92
-70 -172 -224 -172 -330 0 -43 27 -104 56 -130 26 -23 145 -43 209 -35 l54 6
-1 -34 c-1 -41 16 -66 46 -66 12 0 31 -7 42 -15 32 -24 71 -18 111 18 64 57
94 73 208 110 114 38 235 62 264 52 9 -2 36 -1 59 3 40 6 45 11 58 47 7 22 14
49 14 59 0 18 -27 85 -53 131 -6 11 -23 43 -38 70 -30 55 -119 137 -119 110 0
-8 -7 -15 -15 -15 -18 0 -21 50 -2 50 14 1 -25 36 -69 62 -16 10 -49 31 -74
47 -48 31 -79 38 -97 20 -8 -8 -17 -8 -31 0 -11 6 -22 11 -24 10 -2 0 -30 -9
-63 -20z m-43 -46 c13 -16 13 -22 2 -50 l-14 -33 -35 17 c-29 14 -41 15 -66 6
-25 -10 -31 -9 -36 3 -8 21 8 34 69 55 66 23 62 23 80 2z m344 -79 c-5 -14 -4
-15 9 -4 13 11 15 9 15 -14 0 -27 -19 -34 -55 -20 -14 6 -13 9 6 30 26 28 34
30 25 8z m-56 -20 c0 -8 -10 -14 -25 -14 -31 0 -33 -16 -2 -24 18 -5 19 -8 7
-16 -13 -8 -13 -13 -2 -30 11 -18 10 -25 -9 -51 -17 -24 -27 -30 -48 -26 -16
3 -36 -2 -53 -15 -34 -24 -76 -20 -95 8 -12 19 -11 25 12 53 29 34 48 41 38
14 -3 -10 25 12 63 48 82 79 114 94 114 53z m57 -42 c17 -11 5 -49 -18 -55
-20 -5 -39 18 -39 47 0 17 36 22 57 8z m-590 -59 c-9 -9 -20 -14 -24 -10 -3 4
2 14 13 21 25 19 33 10 11 -11z m157 -27 c-3 -9 -17 -16 -33 -16 l-26 0 30 19
c34 21 38 21 29 -3z m-100 -2 c4 -10 -12 -37 -45 -77 -31 -37 -46 -63 -39 -67
13 -8 2 -40 -14 -40 -7 0 -17 5 -24 12 -8 8 -13 1 -18 -30 -4 -23 -10 -42 -13
-42 -4 0 -19 13 -34 28 -23 24 -26 32 -18 59 21 74 89 151 127 145 6 -1 17 5
24 13 16 20 46 19 54 -1z m706 -55 c0 -42 -22 -68 -43 -51 -9 8 -24 8 -49 2
-43 -12 -62 -32 -53 -58 8 -28 -23 -102 -44 -102 -9 0 -23 17 -33 42 -16 37
-16 43 -3 58 8 9 15 26 15 37 0 16 8 23 32 28 31 7 139 86 147 108 8 20 31
-27 31 -64z m-613 -51 c-5 -43 -4 -58 3 -48 5 8 10 27 10 43 0 29 17 36 38 15
18 -18 14 -46 -8 -53 -11 -3 -25 -15 -30 -26 -6 -10 -20 -19 -32 -19 -20 0
-20 3 -14 67 7 72 11 83 28 83 7 0 9 -20 5 -62z m153 -48 c-20 -13 -33 -13
-25 0 3 6 14 10 23 10 15 0 15 -2 2 -10z m-225 -20 c3 -6 -1 -7 -9 -4 -18 7
-21 14 -7 14 6 0 13 -4 16 -10z m165 3 c-1 -11 -109 -83 -124 -83 -16 0 -36
21 -36 37 0 10 9 12 33 8 24 -4 42 1 72 19 42 27 55 31 55 19z m436 -21 c18
-12 34 -50 28 -66 -6 -14 -32 -23 -93 -31 -36 -5 -41 9 -10 25 11 7 27 27 35
46 15 35 21 39 40 26z m-161 -22 c-9 -14 -85 -52 -85 -42 0 4 19 18 43 29 50
26 50 26 42 13z m14 -77 c-27 -35 -59 -45 -59 -20 0 14 34 35 59 36 11 1 11
-2 0 -16z"/>
<path d="M5090 2630 c0 -5 5 -10 11 -10 5 0 7 5 4 10 -3 6 -8 10 -11 10 -2 0
-4 -4 -4 -10z"/>
<path d="M6670 2270 l0 -320 320 0 320 0 0 320 0 320 -320 0 -320 0 0 -320z"/>
<path d="M7431 2270 l0 -320 325 0 324 0 0 320 0 320 -325 0 -325 0 1 -320z"/>
<path d="M2871 2545 c-1 -17 -3 -18 -11 -5 -8 13 -10 12 -10 -4 0 -18 -1 -18
-19 -2 -28 26 -47 10 -60 -50 -11 -46 -16 -54 -35 -54 -14 0 -88 -55 -205
-154 -100 -85 -183 -157 -184 -161 -1 -4 144 -54 322 -112 l324 -105 174 174
c95 95 173 175 173 178 0 3 -86 31 -192 61 l-192 56 -14 54 c-32 130 -32 131
-47 119 -10 -9 -14 -7 -18 7 -4 16 -5 16 -6 -2z"/>
<path d="M8776 2350 c-19 -34 -9 -39 24 -12 19 15 20 20 8 30 -11 9 -18 5 -32
-18z"/>
<path d="M8841 2274 c-12 -15 -21 -30 -21 -34 0 -7 73 -20 113 -20 18 0 16 6
-18 40 -21 22 -42 40 -46 40 -4 0 -17 -12 -28 -26z"/>
<path d="M8694 2265 c-17 -13 -17 -14 -2 -15 9 0 20 5 23 11 11 17 0 20 -21 4z"/>
<path d="M8550 2230 l20 -39 45 27 c25 15 45 30 45 33 0 6 -75 19 -112 19 -18
0 -18 -1 2 -40z"/>
<path d="M8699 2218 c-7 -13 -19 -34 -27 -47 l-16 -23 45 7 c32 5 51 15 71 38
l27 32 -22 7 c-43 12 -66 8 -78 -14z"/>
<path d="M8619 1880 c19 -59 40 -63 54 -10 14 56 27 59 27 7 0 -26 5 -47 10
-47 6 0 10 23 10 50 0 46 -2 50 -24 50 -19 0 -26 -7 -31 -30 -10 -43 -23 -46
-31 -5 -3 19 -12 35 -18 35 -9 0 -9 -13 3 -50z"/>
<path d="M8730 1879 c0 -27 5 -49 10 -49 6 0 10 7 10 15 0 8 6 15 14 15 8 0
16 -7 20 -15 3 -8 10 -15 16 -15 7 0 8 6 2 16 -11 19 7 64 26 64 7 0 12 -15
12 -40 0 -22 5 -40 10 -40 6 0 10 18 10 40 0 29 4 40 15 40 10 0 15 -11 15
-35 0 -39 28 -62 58 -47 9 5 36 8 60 7 47 -1 48 2 22 70 -14 36 -26 31 -43
-17 l-15 -43 -1 43 c-1 55 -19 55 -23 0 -2 -31 -8 -44 -20 -46 -15 -3 -18 4
-18 42 l0 45 -90 0 -90 0 0 -50z m60 16 c0 -8 -9 -15 -20 -15 -11 0 -20 7 -20
15 0 8 9 15 20 15 11 0 20 -7 20 -15z m228 -34 c-15 -5 -21 7 -13 26 7 17 8
17 15 -2 4 -11 3 -22 -2 -24z"/>
<path d="M9070 1882 l-5 -52 30 1 c25 0 27 2 10 8 -14 6 -22 20 -25 52 l-6 44
-4 -53z"/>
<path d="M79 1782 c12 -23 92 -67 151 -82 166 -45 94 -43 2185 -50 1824 -6
1988 -7 2085 -24 169 -28 249 -55 291 -97 l21 -21 20 22 c37 40 120 67 296 97
87 15 298 18 2082 23 2157 7 2034 4 2213 61 63 20 138 72 124 85 -3 4 -16 -6
-29 -20 -29 -34 -133 -69 -270 -93 -95 -16 -259 -18 -2083 -24 -1417 -4 -1998
-9 -2043 -18 -162 -29 -264 -62 -291 -94 -12 -15 -16 -14 -49 9 -45 30 -136
59 -256 81 -83 16 -276 18 -2076 24 -1403 4 -2003 9 -2047 17 -182 33 -296 73
-310 107 -3 8 -9 15 -14 15 -6 0 -6 -7 0 -18z"/>
<path d="M4947 1213 c-10 -9 -9 -63 1 -63 11 0 37 30 45 53 5 13 1 17 -17 17
-12 0 -26 -3 -29 -7z"/>
<path d="M4795 1190 c-3 -5 1 -10 9 -10 10 0 13 -7 11 -21 -4 -17 -2 -19 10
-9 22 18 19 50 -4 50 -11 0 -23 -4 -26 -10z"/>
<path d="M5070 1187 c-35 -16 -52 -39 -37 -50 9 -6 9 -10 1 -13 -7 -3 -10 -14
-7 -24 5 -19 6 -19 44 1 21 10 39 22 39 25 0 3 -6 2 -12 -2 -7 -4 -5 2 5 13 9
11 14 23 10 26 -3 4 1 7 11 7 10 0 14 -5 10 -12 -4 -6 -3 -8 4 -4 5 3 13 0 15
-6 3 -7 6 -8 6 -3 1 17 -13 33 -34 37 -14 2 -20 -2 -19 -14 1 -10 -8 -18 -22
-21 -30 -5 -31 9 -1 34 25 21 22 22 -13 6z"/>
<path d="M4640 1160 c-6 -11 -19 -20 -29 -20 -10 0 -24 -6 -30 -14 -9 -11 -6
-12 15 -8 20 4 25 2 19 -8 -4 -7 -2 -16 6 -21 21 -13 26 -11 32 11 3 11 1 20
-4 20 -5 0 -9 5 -9 10 0 6 11 3 25 -6 14 -9 29 -13 33 -9 4 4 2 10 -5 12 -7 2
-9 11 -6 20 5 12 3 14 -7 8 -9 -5 -11 -4 -6 4 4 6 12 9 17 6 5 -4 9 -1 9 4 0
20 -49 12 -60 -9z"/>
<path d="M4710 1140 c0 -20 5 -30 15 -30 8 0 15 -9 15 -20 0 -11 7 -20 15 -20
7 0 19 -8 24 -17 9 -16 10 -16 11 5 0 16 -6 22 -22 22 -22 0 -22 1 5 25 32 31
34 45 6 45 -16 0 -20 -4 -15 -17 3 -10 -4 -6 -17 10 -29 35 -37 34 -37 -3z"/>
<path d="M5217 1143 c-4 -3 -7 -15 -7 -25 0 -12 -7 -18 -25 -18 -18 0 -23 -4
-19 -15 4 -8 1 -15 -6 -15 -10 0 -10 -3 -1 -14 14 -17 0 -29 -23 -20 -9 3 -16
7 -16 8 0 0 4 16 9 34 5 17 6 32 2 32 -13 0 -85 -40 -92 -52 -10 -16 -70 -19
-88 -5 -12 10 -13 6 -7 -25 6 -31 3 -40 -19 -62 -14 -14 -25 -22 -25 -19 0 3
-6 1 -13 -5 -17 -14 -21 -66 -4 -56 7 5 6 0 -3 -11 -8 -10 -10 -16 -3 -12 6 4
14 3 18 -3 3 -5 17 -10 31 -10 19 0 25 -5 22 -17 -3 -13 -12 -17 -31 -16 -16
1 -27 -3 -27 -11 0 -7 10 -12 23 -10 12 1 33 3 46 3 20 1 21 3 11 16 -10 12
-10 18 0 30 6 8 9 18 6 23 -3 6 2 16 12 23 16 13 16 12 2 -6 -15 -20 -14 -20
8 -1 l22 19 0 -53 c0 -42 3 -51 15 -46 17 6 21 -19 5 -29 -5 -3 -10 -3 -10 2
0 13 -80 6 -140 -13 -12 -4 -12 -7 -1 -13 20 -13 -24 -34 -54 -27 -15 4 -31
-1 -46 -14 -13 -11 -18 -19 -11 -20 6 0 12 5 12 10 0 6 5 10 12 10 6 0 3 -9
-7 -20 -10 -12 -24 -19 -30 -16 -6 2 -11 -5 -11 -15 0 -17 13 -23 52 -22 19 0
114 67 114 80 0 18 20 16 41 -2 15 -15 23 -12 93 30 71 44 97 75 60 75 -13 0
-15 7 -11 29 8 38 -32 73 -71 62 -41 -12 -52 -4 -42 29 9 32 41 67 72 79 12 4
40 3 61 -2 33 -8 41 -7 49 6 12 23 30 21 46 -3 7 -11 19 -20 27 -20 21 0 31
30 14 41 -19 11 -23 63 -4 55 9 -3 12 0 8 10 -3 7 -1 14 5 14 6 0 13 -6 15
-12 3 -8 6 -5 6 5 1 10 6 15 11 12 18 -11 11 -32 -12 -40 -15 -4 -18 -8 -10
-12 7 -3 25 -16 38 -28 14 -13 31 -22 38 -19 17 7 8 54 -10 54 -8 0 -14 9 -14
19 0 11 -5 23 -11 26 -16 10 -69 12 -75 3 -9 -14 -26 -8 -20 7 6 16 3 19 -7 8z
m-3 -59 c13 -5 14 -9 5 -20 -15 -18 -39 -18 -39 -1 0 12 9 27 16 27 1 0 10 -3
18 -6z m-251 -150 c9 -10 -4 -34 -18 -34 -17 0 -28 17 -20 30 7 11 28 13 38 4z"/>
<path d="M4845 1118 c-11 -32 -13 -83 -4 -89 5 -3 1 -16 -11 -31 -11 -15 -20
-32 -20 -39 0 -7 -8 -21 -17 -31 -9 -10 -18 -28 -19 -41 -1 -12 -5 -43 -7 -68
-3 -25 -1 -52 4 -60 6 -10 9 -11 9 -1 0 7 8 12 18 10 9 -2 16 3 15 9 -15 72
10 155 57 198 31 28 21 155 -13 155 -4 0 -10 -6 -12 -12z"/>
<path d="M4493 1087 c-25 -11 -31 -27 -10 -27 17 1 50 27 40 33 -4 2 -18 0
-30 -6z"/>
<path d="M4560 1080 c0 -5 -10 -10 -22 -10 -17 0 -19 -3 -9 -9 8 -6 11 -17 6
-32 -6 -23 -5 -22 23 6 16 17 25 32 21 33 -5 2 -7 8 -3 13 3 5 0 9 -5 9 -6 0
-11 -4 -11 -10z"/>
<path d="M4693 1053 c20 -5 23 -33 3 -33 -8 0 -16 -6 -19 -12 -3 -9 -10 -7
-22 7 -9 11 -14 14 -10 7 3 -7 8 -30 10 -53 4 -35 1 -41 -20 -49 -14 -5 -25
-17 -25 -25 0 -10 5 -13 13 -9 9 5 9 4 0 -6 -10 -11 -15 -11 -28 0 -13 11 -19
10 -38 -6 -12 -11 -26 -25 -30 -32 -6 -9 -18 -11 -35 -7 -23 6 -24 5 -11 -11
8 -10 9 -15 3 -11 -7 4 -18 0 -25 -9 -7 -9 -21 -13 -35 -10 -26 7 -44 -11 -41
-43 1 -16 9 -24 29 -28 32 -6 28 -23 -5 -23 -22 -1 -22 -1 -2 -16 17 -13 18
-16 5 -24 -10 -7 -11 -10 -2 -10 6 0 12 -9 12 -20 0 -11 -6 -20 -14 -20 -14 0
-31 -29 -22 -38 9 -8 64 51 59 63 -2 7 3 15 11 18 9 4 16 2 16 -3 0 -6 4 -10
8 -10 4 0 8 9 8 20 0 11 -6 20 -12 20 -15 0 -22 19 -16 42 4 16 7 16 33 3 15
-8 32 -15 37 -15 12 0 21 59 10 66 -4 3 -8 12 -8 20 0 16 37 19 42 3 5 -14 38
0 38 17 0 8 5 14 10 14 6 0 10 7 10 15 0 8 9 15 20 15 11 0 20 -4 20 -10 0 -5
-9 -15 -20 -22 -22 -14 -27 -43 -9 -54 6 -3 8 -16 5 -29 -4 -14 0 -27 9 -35 8
-7 12 -16 9 -21 -7 -11 7 -11 24 -1 7 5 10 16 6 25 -4 11 -1 17 7 18 8 0 4 4
-8 9 -20 8 -22 14 -17 57 12 109 14 114 45 125 27 9 41 38 18 38 -6 0 -10 15
-9 33 4 62 2 67 -27 66 -17 -1 -21 -3 -10 -6z m-213 -257 c0 -3 -4 -8 -10 -11
-5 -3 -10 -1 -10 4 0 6 5 11 10 11 6 0 10 -2 10 -4z m205 -86 c3 -5 1 -10 -4
-10 -6 0 -11 5 -11 10 0 6 2 10 4 10 3 0 8 -4 11 -10z"/>
<path d="M4436 1026 c-9 -14 -16 -34 -16 -46 0 -11 -5 -20 -11 -20 -5 0 -7 -5
-4 -11 4 -6 9 -8 12 -5 3 3 12 -2 21 -10 13 -14 17 -13 38 13 24 28 27 60 6
56 -6 -2 -9 3 -6 11 3 7 -1 18 -9 25 -12 9 -18 6 -31 -13z"/>
<path d="M4577 986 c-4 -10 -5 -21 -2 -24 9 -9 17 6 13 25 -3 17 -4 17 -11 -1z"/>
<path d="M5161 991 c-7 -5 -13 -20 -13 -34 0 -34 32 -117 46 -117 13 0 40 40
32 48 -3 3 -6 -1 -6 -9 -1 -8 -7 -3 -15 11 -8 14 -12 33 -9 43 3 9 0 17 -6 17
-7 0 -10 7 -6 15 3 8 1 15 -5 15 -6 0 -7 5 -4 10 8 12 4 12 -14 1z m19 -82 c0
-6 -4 -7 -10 -4 -5 3 -10 11 -10 16 0 6 5 7 10 4 6 -3 10 -11 10 -16z"/>
<path d="M5214 992 c4 -7 14 -12 21 -12 9 0 12 -6 9 -17 -5 -15 -4 -15 5 -3 8
12 11 11 16 -5 13 -39 13 -43 3 -53 -6 -6 -7 -16 -3 -22 5 -8 16 -3 36 16 l29
27 19 -22 c21 -24 18 -48 -7 -67 -8 -6 -12 -16 -8 -23 12 -18 36 6 36 35 0 26
18 31 40 12 12 -11 12 -10 2 3 -9 12 -9 18 1 28 10 11 8 11 -11 2 -19 -10 -23
-10 -21 1 4 33 -2 38 -46 35 -41 -2 -44 -1 -39 19 4 17 -1 24 -23 32 -15 5
-37 13 -47 18 -14 5 -17 4 -12 -4z"/>
<path d="M4497 952 c-41 -42 -45 -56 -20 -71 14 -8 24 -1 50 36 28 39 34 73
14 73 -4 0 -24 -17 -44 -38z"/>
<path d="M5400 960 c0 -5 6 -10 14 -10 10 0 12 -7 8 -22 -3 -13 -1 -19 5 -15
7 5 9 -1 5 -15 -3 -14 -2 -19 6 -14 7 4 12 17 12 29 1 18 3 16 15 -10 8 -18
16 -33 19 -33 10 0 -26 75 -42 88 -19 15 -42 16 -42 2z"/>
<path d="M5320 950 c0 -5 5 -10 11 -10 5 0 7 5 4 10 -3 6 -8 10 -11 10 -2 0
-4 -4 -4 -10z"/>
<path d="M4395 920 c3 -5 10 -10 16 -10 5 0 9 5 9 10 0 6 -7 10 -16 10 -8 0
-12 -4 -9 -10z"/>
<path d="M4336 880 c-33 -50 -33 -54 1 -37 19 11 26 22 27 46 1 17 0 31 0 31
-1 0 -13 -18 -28 -40z"/>
<path d="M905 884 c-25 -26 -14 -48 33 -63 31 -9 42 -18 40 -30 -4 -23 -46
-26 -69 -5 -27 24 -35 10 -10 -15 34 -34 101 -21 101 18 0 22 -15 35 -55 48
-16 5 -30 16 -30 24 0 21 34 23 56 3 17 -15 19 -15 19 -1 0 17 -29 37 -54 37
-8 0 -22 -7 -31 -16z"/>
<path d="M2490 825 c0 -43 4 -75 10 -75 6 0 10 14 10 30 0 28 3 30 35 30 33 0
55 20 55 49 0 22 -33 41 -71 41 l-39 0 0 -75z m85 30 c0 -15 -8 -21 -32 -23
-30 -3 -33 -1 -33 23 0 24 3 26 33 23 24 -2 32 -8 32 -23z"/>
<path d="M3504 865 c-7 -19 -21 -51 -29 -72 -8 -20 -13 -38 -11 -41 8 -7 26 9
26 24 0 24 67 19 75 -6 3 -11 11 -20 16 -20 6 0 7 9 3 23 -12 40 -53 127 -59
127 -3 0 -13 -16 -21 -35z m35 -25 c9 -28 8 -30 -14 -30 -22 0 -23 2 -14 30 6
17 12 30 14 30 2 0 8 -13 14 -30z"/>
<path d="M1020 880 c0 -5 5 -10 10 -10 6 0 10 5 10 10 0 6 -4 10 -10 10 -5 0
-10 -4 -10 -10z"/>
<path d="M1340 820 c0 -40 4 -70 10 -70 6 0 10 30 10 70 0 40 -4 70 -10 70 -6
0 -10 -30 -10 -70z"/>
<path d="M1512 874 c-15 -30 0 -118 21 -122 9 -2 17 1 17 7 0 6 -4 11 -10 11
-12 0 -14 67 -2 72 4 2 3 14 -4 27 -11 22 -13 22 -22 5z"/>
<path d="M1740 870 c0 -14 -7 -20 -23 -20 -30 0 -47 -18 -47 -50 0 -35 17 -50
57 -50 l33 0 0 70 c0 40 -4 70 -10 70 -5 0 -10 -9 -10 -20z m-2 -64 c4 -34 -8
-49 -31 -40 -17 6 -24 54 -10 68 15 15 38 0 41 -28z"/>
<path d="M1830 820 c0 -40 4 -70 10 -70 6 0 10 26 10 58 l0 57 38 -57 c50 -78
62 -75 62 12 0 81 -17 95 -22 18 l-3 -51 -35 51 c-48 72 -60 68 -60 -18z"/>
<path d="M2380 820 c0 -40 4 -70 10 -70 6 0 10 30 10 70 0 40 -4 70 -10 70 -6
0 -10 -30 -10 -70z"/>
<path d="M2940 820 c0 -40 4 -70 10 -70 6 0 10 30 10 70 0 40 -4 70 -10 70 -6
0 -10 -30 -10 -70z"/>
<path d="M3112 874 c-15 -30 0 -118 21 -122 9 -2 17 1 17 7 0 6 -4 11 -10 11
-12 0 -14 67 -2 72 4 2 3 14 -4 27 -11 22 -13 22 -22 5z"/>
<path d="M3160 880 c0 -5 5 -10 10 -10 6 0 10 5 10 10 0 6 -4 10 -10 10 -5 0
-10 -4 -10 -10z"/>
<path d="M3712 874 c-15 -30 0 -118 21 -122 9 -2 17 1 17 7 0 6 -4 11 -10 11
-12 0 -14 67 -2 72 4 2 3 14 -4 27 -11 22 -13 22 -22 5z"/>
<path d="M3760 880 c0 -5 5 -10 10 -10 6 0 10 5 10 10 0 6 -4 10 -10 10 -5 0
-10 -4 -10 -10z"/>
<path d="M3900 880 c0 -5 5 -10 10 -10 6 0 10 5 10 10 0 6 -4 10 -10 10 -5 0
-10 -4 -10 -10z"/>
<path d="M3963 875 c-16 -31 -2 -119 20 -123 9 -2 17 1 17 7 0 6 -4 11 -10 11
-5 0 -10 16 -10 36 0 48 20 40 38 -16 13 -39 13 -44 -2 -55 -20 -15 -21 -25
-2 -25 18 0 21 4 51 84 14 36 21 66 16 66 -5 0 -15 -16 -21 -35 -14 -43 -26
-45 -35 -4 -4 18 -15 33 -26 36 -10 3 -19 12 -21 22 -3 14 -5 13 -15 -4z"/>
<path d="M4395 882 c-5 -4 -12 -18 -13 -31 l-4 -24 30 24 c29 24 32 39 9 39
-7 0 -16 -4 -22 -8z"/>
<path d="M5286 861 c-22 -59 -24 -74 -14 -91 9 -13 6 -22 -11 -39 -11 -11 -23
-21 -24 -21 -9 0 -5 60 4 65 10 7 12 58 3 68 -4 4 -15 -3 -25 -15 -24 -27 -24
-35 -1 -17 13 10 12 8 -3 -10 -11 -14 -27 -32 -35 -40 -8 -9 -27 -32 -43 -51
-22 -29 -29 -32 -37 -20 -7 10 -12 12 -17 4 -5 -6 -21 -15 -38 -21 -22 -7 -30
-16 -30 -34 0 -20 -5 -24 -33 -26 -18 -1 -39 -7 -47 -13 -8 -6 -23 -9 -35 -5
-12 4 -26 0 -35 -9 -9 -8 -22 -13 -30 -10 -21 8 -45 -20 -50 -58 -4 -29 -13
-41 -30 -39 -2 0 -15 -10 -28 -22 -29 -28 -60 -98 -55 -127 4 -31 -25 -49 -52
-32 -20 12 -26 6 -12 -14 8 -13 98 -54 118 -54 16 0 19 36 4 45 -21 13 -9 25
24 25 28 0 36 5 46 30 7 17 10 33 6 37 -3 3 -6 1 -6 -5 0 -13 -55 -26 -70 -17
-8 5 -6 15 5 32 18 27 7 25 -28 -5 -16 -14 -17 -14 -12 1 10 24 74 70 90 63 8
-3 15 -1 15 3 0 5 -7 12 -16 15 -13 5 -14 9 -4 21 16 19 39 19 46 0 5 -11 15
-8 47 18 23 18 44 34 47 37 3 3 19 6 35 7 68 4 88 13 142 67 31 31 62 56 70
56 7 0 13 5 13 11 0 6 7 9 15 6 8 -4 17 -1 21 5 4 7 9 6 15 -3 15 -25 10 -49
-13 -58 -13 -5 -31 -18 -42 -30 -10 -11 -22 -19 -25 -16 -4 2 -8 -9 -9 -25
l-2 -28 41 20 c23 11 52 31 64 44 23 25 23 25 30 4 5 -15 -1 -28 -19 -47 -26
-26 -42 -60 -32 -70 3 -3 17 6 32 20 21 21 30 24 49 17 20 -7 25 -5 30 11 4
13 0 28 -11 40 -16 17 -16 19 -1 19 10 0 16 -6 15 -12 -2 -8 5 -12 17 -10 23
4 45 22 27 22 -7 0 -12 9 -12 20 0 19 14 24 58 23 6 -1 12 3 12 7 0 5 15 13
34 20 33 10 79 50 59 50 -20 0 -73 -22 -73 -31 0 -13 -28 -11 -36 3 -4 6 -1
16 7 22 16 13 18 88 2 93 -6 2 -8 -7 -6 -22 6 -27 -14 -36 -23 -10 -8 21 -23
19 -22 -2 0 -10 -3 -27 -7 -37 -6 -13 -5 -17 2 -13 20 13 34 -18 20 -46 -16
-35 -51 -37 -45 -3 4 22 -14 42 -31 36 -2 -1 -7 3 -10 9 -5 8 -13 6 -27 -5
-19 -15 -19 -15 2 -9 25 6 39 -16 21 -34 -16 -16 -23 -14 -41 13 -20 31 -13
51 26 67 25 10 32 10 40 -2 8 -11 9 -10 4 4 -8 24 3 47 23 48 10 0 12 2 3 6
-7 3 -19 0 -26 -6 -20 -17 -48 -3 -37 17 4 10 6 22 4 29 -2 6 1 14 6 18 16 9
13 32 -3 32 -8 0 -17 -7 -20 -16z m-248 -274 c2 -10 -3 -17 -12 -17 -18 0 -29
16 -21 31 9 14 29 6 33 -14z m-168 -47 c0 -5 -4 -10 -10 -10 -5 0 -10 5 -10
10 0 6 5 10 10 10 6 0 10 -4 10 -10z m-35 -10 c-3 -5 -14 -10 -23 -10 -15 0
-15 2 -2 10 20 13 33 13 25 0z"/>
<path d="M1027 853 c-11 -10 -8 -103 3 -103 6 0 10 25 10 55 0 56 -1 60 -13
48z"/>
<path d="M1093 853 c-20 -4 -23 -11 -23 -54 0 -60 18 -66 22 -7 2 31 8 44 21
46 14 3 17 -4 17 -42 0 -58 18 -61 22 -4 2 31 8 44 21 46 14 3 17 -4 17 -42 0
-25 5 -46 10 -46 6 0 10 20 10 44 0 52 -18 73 -49 57 -13 -7 -22 -8 -26 -1 -3
5 -9 9 -13 9 -4 -1 -17 -4 -29 -6z"/>
<path d="M1230 816 c0 -51 13 -65 58 -64 32 1 32 1 32 55 0 63 -17 72 -22 11
-2 -36 -7 -44 -25 -46 -21 -3 -23 1 -23 42 0 25 -4 46 -10 46 -5 0 -10 -20
-10 -44z"/>
<path d="M1408 840 c-13 -11 -18 -19 -12 -20 5 0 15 5 21 11 13 13 43 5 43
-11 0 -5 -11 -10 -24 -10 -28 0 -51 -24 -42 -45 4 -10 18 -14 46 -13 l41 1 -3
45 c-4 56 -33 73 -70 42z m52 -54 c0 -16 -27 -29 -41 -20 -15 9 -10 22 9 27
29 8 32 7 32 -7z"/>
<path d="M1571 844 c-23 -17 -28 -63 -9 -82 15 -15 64 -16 73 -1 10 16 -3 23
-18 10 -17 -14 -47 -4 -47 15 0 10 12 14 40 14 42 0 48 6 28 32 -20 24 -44 28
-67 12z m47 -21 c2 -8 -6 -13 -22 -13 -25 0 -33 10 -19 24 10 10 36 3 41 -11z"/>
<path d="M2001 844 c-23 -17 -28 -63 -9 -82 15 -15 64 -16 73 -1 10 16 -3 23
-18 10 -17 -14 -47 -4 -47 15 0 10 12 14 40 14 42 0 48 6 28 32 -20 24 -44 28
-67 12z m47 -21 c2 -8 -6 -13 -22 -13 -25 0 -33 10 -19 24 10 10 36 3 41 -11z"/>
<path d="M2090 816 c0 -51 13 -65 58 -64 32 1 32 1 32 55 0 63 -17 72 -22 11
-2 -36 -7 -44 -25 -46 -21 -3 -23 1 -23 42 0 25 -4 46 -10 46 -5 0 -10 -20
-10 -44z"/>
<path d="M2218 853 c-14 -3 -18 -15 -18 -54 0 -27 5 -49 10 -49 6 0 10 18 10
41 0 32 4 42 20 46 11 3 17 9 14 14 -5 9 -8 10 -36 2z"/>
<path d="M2288 840 c-13 -11 -18 -19 -12 -20 5 0 15 5 21 11 13 13 43 5 43
-11 0 -5 -11 -10 -24 -10 -28 0 -51 -24 -42 -45 4 -10 18 -14 46 -13 l41 1 -3
45 c-4 56 -33 73 -70 42z m52 -54 c0 -16 -27 -29 -41 -20 -15 9 -10 22 9 27
29 8 32 7 32 -7z"/>
<path d="M2631 843 c-23 -16 -28 -62 -9 -81 22 -22 67 -14 80 13 23 51 -27 99
-71 68z m47 -15 c27 -27 2 -75 -32 -62 -16 6 -23 54 -9 67 10 11 28 8 41 -5z"/>
<path d="M2743 853 c-21 -4 -23 -10 -23 -74 0 -39 4 -69 10 -69 6 0 10 11 10
24 0 19 4 22 23 19 29 -6 49 18 45 53 -4 31 -33 52 -65 47z m45 -44 c3 -27
-20 -55 -38 -44 -11 7 -14 58 -3 69 14 14 38 0 41 -25z"/>
<path d="M2830 816 c0 -51 13 -65 58 -64 32 1 32 1 32 55 0 63 -17 72 -22 11
-2 -36 -7 -44 -25 -46 -21 -3 -23 1 -23 42 0 25 -4 46 -10 46 -5 0 -10 -20
-10 -44z"/>
<path d="M3008 840 c-13 -11 -18 -19 -12 -20 5 0 15 5 21 11 13 13 43 5 43
-11 0 -5 -11 -10 -24 -10 -28 0 -51 -24 -42 -45 4 -10 18 -14 46 -13 l41 1 -3
45 c-4 56 -33 73 -70 42z m52 -54 c0 -16 -27 -29 -41 -20 -15 9 -10 22 9 27
29 8 32 7 32 -7z"/>
<path d="M3167 853 c-11 -10 -8 -103 3 -103 6 0 10 25 10 55 0 56 -1 60 -13
48z"/>
<path d="M3221 843 c-23 -16 -28 -62 -9 -81 22 -22 67 -14 80 13 23 51 -27 99
-71 68z m47 -15 c27 -27 2 -75 -32 -62 -16 6 -23 54 -9 67 10 11 28 8 41 -5z"/>
<path d="M3333 853 c-20 -4 -23 -11 -23 -54 0 -60 18 -65 22 -6 2 34 7 42 23
42 16 0 21 -8 23 -42 4 -57 22 -55 22 2 0 34 -5 47 -19 55 -11 5 -21 9 -23 9
-2 -1 -13 -4 -25 -6z"/>
<path d="M3621 843 c-23 -16 -28 -62 -9 -81 7 -7 22 -12 34 -12 23 0 51 26 40
37 -3 4 -12 -2 -20 -12 -19 -27 -46 -12 -46 25 0 33 24 50 43 31 15 -15 27
-14 21 3 -8 21 -40 26 -63 9z"/>
<path d="M3767 853 c-11 -10 -8 -103 3 -103 6 0 10 25 10 55 0 56 -1 60 -13
48z"/>
<path d="M3801 848 c-1 -23 29 -98 39 -98 12 0 43 86 38 102 -3 7 -10 -4 -17
-24 -7 -21 -16 -38 -19 -38 -4 0 -14 17 -24 38 -9 20 -17 29 -17 20z"/>
<path d="M3907 853 c-11 -10 -8 -103 3 -103 6 0 10 25 10 55 0 56 -1 60 -13
48z"/>
<path d="M5464 852 c-5 -4 -10 -33 -10 -65 l0 -58 14 33 c30 70 31 76 19 87
-7 5 -17 7 -23 3z"/>
<path d="M4310 810 c0 -14 29 -32 40 -25 6 3 8 10 5 14 -7 12 -45 21 -45 11z"/>
<path d="M4261 772 c-18 -52 -20 -110 -4 -124 9 -7 10 -14 3 -23 -7 -9 -4 -20
10 -38 25 -32 26 -60 3 -55 -11 2 -18 13 -19 28 -2 41 -3 45 -22 56 -15 10
-18 8 -19 -10 -1 -11 6 -40 14 -63 13 -39 23 -48 46 -44 4 0 7 -8 7 -19 0 -14
-7 -20 -21 -20 -17 0 -14 -6 21 -35 23 -19 49 -35 58 -34 13 0 11 3 -4 9 -27
11 -42 32 -26 38 6 2 8 10 5 18 -3 8 1 14 10 14 21 0 31 -17 15 -23 -7 -3 -8
-6 -3 -6 6 0 16 3 24 8 12 8 12 12 2 24 -9 12 -9 16 1 20 7 2 -4 8 -24 12 -21
4 -38 12 -38 17 0 6 7 8 15 5 24 -10 27 11 4 32 -17 15 -20 27 -16 51 5 23 3
30 -9 30 -8 0 -12 5 -9 10 3 6 18 10 32 10 l26 0 -23 25 c-21 22 -21 25 -6 31
30 12 6 85 -30 91 -5 1 -16 -15 -23 -35z m50 -17 c14 10 10 -15 -5 -31 -8 -8
-24 -14 -35 -14 -23 0 -20 21 8 54 14 16 16 16 19 2 2 -9 8 -14 13 -11z m-71
-165 c0 -5 -4 -10 -10 -10 -5 0 -10 5 -10 10 0 6 5 10 10 10 6 0 10 -4 10 -10z"/>
<path d="M4575 770 c3 -5 8 -10 11 -10 2 0 4 5 4 10 0 6 -5 10 -11 10 -5 0 -7
-4 -4 -10z"/>
<path d="M4735 744 c9 -9 18 -14 21 -11 9 9 -6 27 -22 27 -13 0 -13 -2 1 -16z"/>
<path d="M4594 741 c8 -13 -17 -71 -31 -71 -7 0 -13 -11 -13 -25 0 -14 -5 -25
-11 -25 -12 0 -38 -29 -39 -43 0 -5 5 -5 10 -2 6 3 10 1 10 -4 0 -6 -6 -11
-14 -11 -8 0 -17 -4 -20 -8 -2 -4 12 -6 32 -4 20 3 34 1 30 -3 -12 -12 16 -34
29 -23 19 15 34 0 27 -28 -5 -19 -2 -24 14 -24 11 0 27 11 36 25 19 29 21 44
4 27 -21 -21 -38 -13 -38 18 0 21 -5 30 -16 30 -13 0 -14 3 -5 13 6 8 8 17 4
20 -3 4 1 7 11 7 10 0 24 -7 32 -15 9 -8 33 -15 56 -15 32 0 39 3 34 16 -3 9
-6 20 -6 25 0 5 -7 9 -15 9 -10 0 -15 10 -15 27 0 34 -13 22 -14 -14 -1 -37
-32 -37 -54 -1 -15 25 -15 28 0 45 13 14 14 21 5 34 -12 16 -52 35 -43 20z
m-24 -145 c0 -18 -10 -25 -26 -19 -21 8 -17 29 6 30 11 1 20 -4 20 -11z"/>
<path d="M5125 739 c-4 -6 -5 -12 -2 -15 2 -3 7 2 10 11 7 17 1 20 -8 4z"/>
<path d="M4880 660 c0 -15 21 -23 32 -12 6 6 2 11 -11 15 -12 3 -21 1 -21 -3z"/>
<path d="M4370 649 c0 -5 5 -7 10 -4 6 3 10 8 10 11 0 2 -4 4 -10 4 -5 0 -10
-5 -10 -11z"/>
<path d="M4340 632 c0 -15 4 -20 16 -15 9 3 12 9 7 12 -4 3 -11 10 -15 15 -5
5 -8 0 -8 -12z"/>
<path d="M5561 606 l-24 -31 28 27 c16 15 27 29 24 31 -2 3 -15 -10 -28 -27z"/>
<path d="M5431 584 c0 -11 3 -14 6 -6 3 7 2 16 -1 19 -3 4 -6 -2 -5 -13z"/>
<path d="M5110 570 c0 -5 5 -10 10 -10 6 0 10 5 10 10 0 6 -4 10 -10 10 -5 0
-10 -4 -10 -10z"/>
<path d="M4410 560 c0 -5 7 -10 16 -10 9 0 12 -5 8 -12 -4 -7 -3 -8 4 -4 19
12 14 36 -8 36 -11 0 -20 -4 -20 -10z"/>
<path d="M5071 513 c-12 -8 -19 -18 -16 -23 3 -5 1 -11 -5 -15 -6 -4 -8 -10
-5 -15 3 -5 -4 -14 -16 -21 -19 -10 -21 -9 -16 5 4 10 1 16 -9 16 -9 0 -12 5
-8 13 6 9 5 9 -7 0 -8 -6 -30 -10 -49 -9 -52 4 -63 -3 -37 -24 20 -17 21 -19
4 -25 -10 -4 -21 -5 -24 -2 -10 11 -42 -13 -37 -27 3 -8 0 -17 -5 -21 -18 -11
-3 -24 21 -17 16 4 19 2 13 -9 -6 -11 -5 -12 6 -1 7 7 14 22 14 35 0 16 5 21
20 19 45 -8 66 -3 109 28 24 18 47 43 50 56 4 13 11 24 17 24 7 0 9 -9 6 -21
-5 -19 -4 -19 11 -6 9 7 26 17 36 21 23 8 18 14 -22 25 -22 7 -36 5 -51 -6z
m-101 -97 c0 -3 -4 -8 -10 -11 -5 -3 -10 -1 -10 4 0 6 5 11 10 11 6 0 10 -2
10 -4z"/>
<path d="M4384 480 c-1 -16 3 -27 7 -24 5 3 21 -2 36 -10 24 -13 25 -15 8 -16
-16 0 -17 -2 -6 -9 10 -7 2 -12 -30 -18 l-44 -9 70 -13 c58 -11 78 -11 115 0
25 7 50 13 57 12 6 0 14 6 17 14 5 13 0 16 -42 29 -7 2 -12 9 -11 16 3 27 -1
43 -9 32 -7 -12 -31 -17 -65 -15 -10 0 -15 6 -12 11 4 6 -6 10 -24 10 -16 0
-33 5 -36 10 -13 20 -30 9 -31 -20z m161 -40 c3 -5 -1 -10 -9 -10 -10 0 -13
-6 -10 -15 4 -8 2 -15 -4 -15 -6 0 -17 -3 -26 -6 -11 -4 -16 -1 -16 10 0 9 6
16 13 17 10 0 10 2 0 6 -7 2 -13 9 -13 14 0 12 57 12 65 -1z"/>
<path d="M5368 488 c2 -10 7 -17 10 -14 2 3 16 -1 31 -8 27 -14 151 -11 151 4
0 4 -25 6 -55 4 -47 -3 -55 -1 -56 13 0 17 -1 17 -7 0 -7 -16 -9 -16 -43 1
-35 18 -36 18 -31 0z"/>
<path d="M5180 430 c-11 -7 -6 -10 20 -10 26 0 31 3 20 10 -8 5 -17 10 -20 10
-3 0 -12 -5 -20 -10z"/>
<path d="M5122 407 c-8 -9 4 -21 49 -50 33 -20 57 -32 54 -27 -3 5 -26 21 -51
36 -45 27 -53 39 -31 47 7 4 8 6 1 6 -6 1 -16 -5 -22 -12z"/>
<path d="M4978 333 c6 -2 18 -2 25 0 6 3 1 5 -13 5 -14 0 -19 -2 -12 -5z"/>
<path d="M4900 305 c-7 -9 -37 -30 -67 -48 -47 -28 -66 -47 -46 -47 7 0 143
102 143 107 0 9 -19 1 -30 -12z"/>
</g>
</svg>
