<svg width="2869" height="1187" xmlns="http://www.w3.org/2000/svg" xmlns:xlink="http://www.w3.org/1999/xlink" xml:space="preserve" overflow="hidden"><g transform="translate(-829 -696)"><g><path d="M1050 993.001 2889 993.001 2889 697 3481 1289 2889 1881 2889 1585 1050 1585Z" fill="#D2E5F5" fill-rule="evenodd" fill-opacity="1"/><path d="M837.5 1131.5C837.5 1087.87 872.87 1052.5 916.501 1052.5L1679.5 1052.5C1723.13 1052.5 1758.5 1087.87 1758.5 1131.5L1758.5 1447.5C1758.5 1491.13 1723.13 1526.5 1679.5 1526.5L916.501 1526.5C872.87 1526.5 837.5 1491.13 837.5 1447.5Z" stroke="#FFFFFF" stroke-width="6.875" stroke-linecap="butt" stroke-linejoin="miter" stroke-miterlimit="8" stroke-opacity="1" fill="#5CB4E4" fill-rule="evenodd" fill-opacity="1"/><text fill="#FFFFFF" fill-opacity="1" font-family="Aptos,Aptos_MSFontService,sans-serif" font-style="normal" font-variant="normal" font-weight="400" font-stretch="normal" font-size="138" text-anchor="start" direction="ltr" writing-mode="lr-tb" unicode-bidi="normal" text-decoration="none" transform="matrix(1 0 0 1 1155.97 1250)">Data </text><text fill="#FFFFFF" fill-opacity="1" font-family="Aptos,Aptos_MSFontService,sans-serif" font-style="normal" font-variant="normal" font-weight="400" font-stretch="normal" font-size="138" text-anchor="start" direction="ltr" writing-mode="lr-tb" unicode-bidi="normal" text-decoration="none" transform="matrix(1 0 0 1 1005.89 1401)">Gathering</text><path d="M1805.5 1131.5C1805.5 1087.87 1840.87 1052.5 1884.5 1052.5L2647.5 1052.5C2691.13 1052.5 2726.5 1087.87 2726.5 1131.5L2726.5 1447.5C2726.5 1491.13 2691.13 1526.5 2647.5 1526.5L1884.5 1526.5C1840.87 1526.5 1805.5 1491.13 1805.5 1447.5Z" stroke="#FFFFFF" stroke-width="6.875" stroke-linecap="butt" stroke-linejoin="miter" stroke-miterlimit="8" stroke-opacity="1" fill="#17D7DC" fill-rule="evenodd" fill-opacity="1"/><text fill="#FFFFFF" fill-opacity="1" font-family="Aptos,Aptos_MSFontService,sans-serif" font-style="normal" font-variant="normal" font-weight="400" font-stretch="normal" font-size="138" text-anchor="start" direction="ltr" writing-mode="lr-tb" unicode-bidi="normal" text-decoration="none" transform="matrix(1 0 0 1 1873.94 1250)">Model</text><text fill="#FFFFFF" fill-opacity="1" font-family="Aptos,Aptos_MSFontService,sans-serif" font-style="normal" font-variant="normal" font-weight="400" font-stretch="normal" font-size="138" text-anchor="start" direction="ltr" writing-mode="lr-tb" unicode-bidi="normal" text-decoration="none" transform="matrix(1 0 0 1 2243.75 1250)">-</text><text fill="#FFFFFF" fill-opacity="1" font-family="Aptos,Aptos_MSFontService,sans-serif" font-style="normal" font-variant="normal" font-weight="400" font-stretch="normal" font-size="138" text-anchor="start" direction="ltr" writing-mode="lr-tb" unicode-bidi="normal" text-decoration="none" transform="matrix(1 0 0 1 2290.55 1250)">based </text><text fill="#FFFFFF" fill-opacity="1" font-family="Aptos,Aptos_MSFontService,sans-serif" font-style="normal" font-variant="normal" font-weight="400" font-stretch="normal" font-size="138" text-anchor="start" direction="ltr" writing-mode="lr-tb" unicode-bidi="normal" text-decoration="none" transform="matrix(1 0 0 1 1948.42 1401)">integration</text><path d="M2773.5 1131.5C2773.5 1087.87 2808.87 1052.5 2852.5 1052.5L3615.5 1052.5C3659.13 1052.5 3694.5 1087.87 3694.5 1131.5L3694.5 1447.5C3694.5 1491.13 3659.13 1526.5 3615.5 1526.5L2852.5 1526.5C2808.87 1526.5 2773.5 1491.13 2773.5 1447.5Z" stroke="#FFFFFF" stroke-width="6.875" stroke-linecap="butt" stroke-linejoin="miter" stroke-miterlimit="8" stroke-opacity="1" fill="#089F72" fill-rule="evenodd" fill-opacity="1"/><text fill="#FFFFFF" fill-opacity="1" font-family="Aptos,Aptos_MSFontService,sans-serif" font-style="normal" font-variant="normal" font-weight="400" font-stretch="normal" font-size="138" text-anchor="start" direction="ltr" writing-mode="lr-tb" unicode-bidi="normal" text-decoration="none" transform="matrix(1 0 0 1 2908.33 1250)">Knowledge </text><text fill="#FFFFFF" fill-opacity="1" font-family="Aptos,Aptos_MSFontService,sans-serif" font-style="normal" font-variant="normal" font-weight="400" font-stretch="normal" font-size="138" text-anchor="start" direction="ltr" writing-mode="lr-tb" unicode-bidi="normal" text-decoration="none" transform="matrix(1 0 0 1 2954.64 1401)">inference</text></g></g></svg>